<svg xmlns="http://www.w3.org/2000/svg" width="406" height="306" enable-background="new 0 0 64 64" viewBox="0 0 64 64"><path fill="#f6b64e" d="M34.56 50.56c-.54 0-.97-.43-.97-.97V38.42c0-.54.43-.97.97-.97s.97.43.97.97v11.17C35.53 50.13 35.09 50.56 34.56 50.56zM29.45 50.56c-.54 0-.97-.43-.97-.97V38.42c0-.54.43-.97.97-.97.54 0 .97.43.97.97v11.17C30.42 50.13 29.98 50.56 29.45 50.56z"/><path fill="#34495c" d="M39.11,55.22H24.89c-1.82,0-3.29-1.48-3.29-3.29c0-1.82,1.48-3.29,3.29-3.29h14.22
					c1.82,0,3.29,1.48,3.29,3.29C42.4,53.74,40.92,55.22,39.11,55.22z M24.89,50.57c-0.75,0-1.36,0.61-1.36,1.35
					c0,0.75,0.61,1.36,1.36,1.36h14.22c0.75,0,1.36-0.61,1.36-1.36c0-0.75-0.61-1.35-1.36-1.35H24.89z"/><path fill="#34495c" d="M39.11 59.87H24.89c-1.82 0-3.29-1.48-3.29-3.29 0-1.82 1.48-3.29 3.29-3.29.54 0 .97.43.97.97 0 .54-.43.97-.97.97-.75 0-1.36.61-1.36 1.36 0 .75.61 1.35 1.36 1.35h14.22c.75 0 1.36-.61 1.36-1.35 0-.75-.61-1.36-1.36-1.36-.54 0-.97-.43-.97-.97 0-.54.43-.97.97-.97 1.82 0 3.29 1.48 3.29 3.29C42.4 58.39 40.92 59.87 39.11 59.87zM24.06 50.71c-.54 0-.97-.43-.97-.97v-.96c0-3.31-1.31-6.5-3.58-8.76-3.58-3.55-5.48-8.46-5.23-13.49.43-9.02 8.43-16.74 17.47-16.87h.25c4.69 0 9.12 1.81 12.46 5.11 3.42 3.37 5.3 7.86 5.3 12.64 0 4.85-1.92 9.38-5.42 12.75-2.17 2.12-3.42 5.14-3.42 8.29v1.3c0 .54-.43.97-.97.97-.54 0-.97-.43-.97-.97v-1.3c0-3.67 1.46-7.2 4.01-9.68 3.11-3.01 4.83-7.04 4.83-11.36 0-4.26-1.68-8.25-4.72-11.26-2.98-2.93-6.92-4.55-11.1-4.55h-.24c-8.03.11-15.16 7-15.54 15.03-.23 4.47 1.47 8.85 4.66 12.01 2.64 2.62 4.16 6.32 4.16 10.14v.96C25.03 50.28 24.59 50.71 24.06 50.71z"/><path fill="#34495c" d="M32.03,64c-2.87,0-5.16-2.29-5.16-5.1c0-0.54,0.43-0.97,0.97-0.97c0.54,0,0.97,0.43,0.97,0.97
					c0,1.75,1.42,3.16,3.16,3.16c1.8,0,3.22-1.42,3.22-3.16c0-0.54,0.43-0.97,0.97-0.97s0.97,0.43,0.97,0.97
					C37.13,61.71,34.84,64,32.03,64z"/><path fill="#f6b64e" d="M32,39.67c-6.91,0-12.53-5.62-12.53-12.53c0-6.91,5.62-12.53,12.53-12.53s12.53,5.62,12.53,12.53
					C44.53,34.04,38.91,39.67,32,39.67z M32,16.54c-5.84,0-10.6,4.75-10.6,10.6c0,5.84,4.75,10.6,10.6,10.6s10.6-4.75,10.6-10.6
					C42.6,21.29,37.84,16.54,32,16.54z"/><path fill="#34495c" d="M47.08,49.81L47.08,49.81c-0.26,0-0.51-0.1-0.69-0.29l-3.55-3.61c-0.76,0.45-1.54,0.84-2.33,1.18
					c-0.49,0.21-1.06-0.02-1.27-0.51c-0.21-0.49,0.02-1.06,0.51-1.27c0.92-0.39,1.84-0.88,2.72-1.44c0.39-0.25,0.89-0.19,1.21,0.14
					l3.4,3.46l4.95-5.03l-3.34-3.39c-0.32-0.32-0.37-0.82-0.13-1.21c1.28-1.98,2.18-4.13,2.7-6.39c0.1-0.44,0.49-0.75,0.95-0.75
					h4.61v-7.12h-4.45c-0.46,0-0.86-0.33-0.95-0.78c-0.47-2.37-1.35-4.61-2.6-6.65c-0.23-0.38-0.18-0.87,0.14-1.19l3.08-3.12
					l-4.95-5.03l-2.99,3.03c-0.33,0.33-0.84,0.38-1.23,0.12c-2-1.35-4.22-2.29-6.6-2.82c-0.44-0.1-0.76-0.49-0.76-0.95V1.94h-6.99
					v4.25c0,0.46-0.32,0.85-0.76,0.95c-2.35,0.51-4.57,1.46-6.6,2.82c-0.39,0.26-0.9,0.21-1.23-0.13L16.93,6.8l-4.96,5.04l3.09,3.13
					c0.31,0.32,0.37,0.81,0.14,1.19c-1.27,2.07-2.14,4.3-2.59,6.63c-0.09,0.46-0.49,0.78-0.95,0.78H7.18v7.12h4.61
					c0.45,0,0.85,0.31,0.95,0.76c0.52,2.27,1.43,4.42,2.71,6.37c0.25,0.38,0.2,0.89-0.12,1.21l-3.36,3.4l4.95,5.03l3.4-3.46
					c0.32-0.33,0.83-0.38,1.22-0.13c0.84,0.55,1.73,1.02,2.65,1.41c0.49,0.21,0.72,0.78,0.51,1.27c-0.21,0.49-0.78,0.72-1.27,0.51
					c-0.77-0.33-1.53-0.72-2.26-1.15l-3.55,3.61c-0.36,0.37-1.02,0.37-1.38,0L9.91,43.1c-0.37-0.38-0.37-0.98,0-1.36l3.49-3.53
					c-1.05-1.75-1.85-3.62-2.37-5.59H6.21c-0.54,0-0.97-0.43-0.97-0.97V22.6c0-0.54,0.43-0.97,0.97-0.97h4.65
					c0.48-2.03,1.24-3.99,2.29-5.83l-3.23-3.28c-0.37-0.38-0.37-0.98,0-1.36l6.32-6.42c0.18-0.19,0.43-0.29,0.69-0.29l0,0
					c0.26,0,0.51,0.1,0.69,0.29l3.13,3.18c1.82-1.13,3.78-1.96,5.83-2.49V0.97c0-0.54,0.43-0.97,0.97-0.97h8.93
					c0.54,0,0.97,0.43,0.97,0.97v4.46c2.07,0.54,4.02,1.37,5.82,2.49l3.13-3.17c0.18-0.18,0.43-0.29,0.69-0.29c0,0,0,0,0,0
					c0.26,0,0.51,0.1,0.69,0.29l6.31,6.41c0.37,0.38,0.37,0.98,0,1.36l-3.23,3.27c1.04,1.83,1.81,3.79,2.29,5.85h4.64
					c0.54,0,0.97,0.43,0.97,0.97v9.06c0,0.54-0.43,0.97-0.97,0.97h-4.82c-0.52,1.95-1.32,3.83-2.37,5.59l3.48,3.53
					c0.37,0.38,0.37,0.98,0,1.36l-6.31,6.41C47.59,49.7,47.34,49.81,47.08,49.81z"/><path fill="#f6b64e" d="M37.71 33.49c-.24 0-.48-.09-.67-.26-.39-.37-.41-.98-.04-1.37 1.26-1.34 1.93-3.08 1.87-4.92-.05-1.84-.82-3.54-2.15-4.8-.39-.37-.41-.98-.04-1.37.37-.39.98-.41 1.37-.04 1.71 1.62 2.69 3.8 2.76 6.16.07 2.35-.78 4.59-2.4 6.31C38.22 33.38 37.96 33.49 37.71 33.49zM26.62 33.81c-.24 0-.48-.09-.67-.27-3.53-3.34-3.7-8.93-.36-12.46.37-.39.98-.41 1.37-.04.39.37.41.98.04 1.37-2.6 2.76-2.48 7.12.28 9.72.39.37.41.98.04 1.37C27.13 33.71 26.87 33.81 26.62 33.81zM34.11 32.85h-3.73c-.35 0-.67-.19-.84-.49-.17-.3-.17-.68.01-.98l1.51-2.53-1.41-1.64c-.15-.18-.23-.4-.23-.63v-2.65c0-1.56 1.27-2.84 2.84-2.84 1.56 0 2.84 1.27 2.84 2.84v.73c0 .54-.43.97-.97.97-.54 0-.97-.43-.97-.97v-.73c0-.5-.4-.9-.9-.9-.5 0-.9.4-.9.9v2.29l1.63 1.9c.27.32.31.77.1 1.13l-.99 1.66h2.03c.54 0 .97.43.97.97C35.08 32.41 34.64 32.85 34.11 32.85z"/><path fill="#f6b64e" d="M33.59,29.72h-3.69c-0.54,0-0.97-0.43-0.97-0.97c0-0.54,0.43-0.97,0.97-0.97h3.69
				c0.54,0,0.97,0.43,0.97,0.97C34.55,29.29,34.12,29.72,33.59,29.72z"/></svg>