<svg width="406" height="306" id="Capa_1" enable-background="new 0 0 512 512" viewBox="0 0 512 512" xmlns="http://www.w3.org/2000/svg"><g><path d="m203.595 205.232c0-19.579-11.204-32.734-27.88-32.734h-21.794v67.064l22.24-.17c15.641-.273 27.434-14.958 27.434-34.16zm-27.622 19.162-7.052.054v-36.949h6.794c11.952 0 12.88 13.574 12.88 17.734 0 9.309-4.749 19.023-12.622 19.161z"/><path d="m116.731 216.851c12.387 0 22.464-9.948 22.464-22.176s-10.077-22.176-22.464-22.176h-21.982v67.007h15v-22.623zm-6.982-29.353h6.981c4.046 0 7.464 3.286 7.464 7.176s-3.418 7.176-7.498 7.176l-6.948.031v-14.383z"/><path d="m254.433 187.498v-15h-35.924v66.626h15v-21.626h19.262v-15h-19.262v-15z"/><path d="m382.857 0h-295.607v119.999h-30c-12.407 0-22.5 10.093-22.5 22.5v22.5h15v-22.5c0-4.135 3.364-7.5 7.5-7.5h270.613l-27.134 142.005h-250.979v-97.006h-15v107.324l52.5 60v164.678h307.5v-15h-292.5v-204.996h210.886l32.864-172.005h-243.75v-104.999h270.001v89.999h89.999v392.001h-22.5v15h37.5v-417.607zm-295.607 324.542-28.471-32.538h28.471zm300.001-298.936 64.393 64.393h-64.393z"/><path d="m409.75 497h15v15h-15z"/><path d="m311.26 376.73c8.044 0 15.803 2.369 22.437 6.851l6.215 4.198 8.396-12.429-6.215-4.199c-9.123-6.163-19.785-9.421-30.833-9.421-30.402 0-55.136 24.734-55.136 55.137s24.733 55.137 55.136 55.137c14.545 0 26.91-5.578 35.758-16.129l4.819-5.747-11.494-9.638-4.819 5.747c-5.906 7.044-14.297 10.767-24.264 10.767-22.131 0-40.136-18.005-40.136-40.137s18.006-40.137 40.136-40.137z"/><path d="m433.552 393.991c0-17.789-15.101-32.26-33.661-32.26h-32.832l-.018 110.272 15 .002.006-39.138 40.714 38.676 10.331-10.875-36.217-34.404 3.015-.013c18.562 0 33.662-14.472 33.662-32.26zm-51.5 17.337.006-34.598h17.834c10.115 0 18.661 7.904 18.661 17.26s-8.546 17.26-18.693 17.26z"/><path d="m130.946 416.867c0 30.402 24.734 55.137 55.137 55.137s55.136-24.734 55.136-55.137-24.734-55.137-55.136-55.137-55.137 24.734-55.137 55.137zm95.273 0c0 22.131-18.005 40.137-40.136 40.137s-40.137-18.005-40.137-40.137 18.005-40.137 40.137-40.137 40.136 18.005 40.136 40.137z"/><path d="m291.749 157.366h15v14.999h-15z" transform="matrix(.188 -.982 .982 .188 81.143 427.849)"/><path d="m286.119 186.833h15v14.999h-15z" transform="matrix(.188 -.982 .982 .188 47.626 446.255)"/></g></svg>