<?xml version="1.0" encoding="utf-8"?>
<!-- Svg Vector Icons : http://www.onlinewebfonts.com/icon -->
<!DOCTYPE svg PUBLIC "-//W3C//DTD SVG 1.1//EN" "http://www.w3.org/Graphics/SVG/1.1/DTD/svg11.dtd">
<svg version="1.1" xmlns="http://www.w3.org/2000/svg" xmlns:xlink="http://www.w3.org/1999/xlink" width="406" height="306" x="0px" y="0px" viewBox="0 0 1000 1000" enable-background="new 0 0 1000 1000" xml:space="preserve">
<metadata> Svg Vector Icons : http://www.onlinewebfonts.com/icon </metadata>
<g><path d="M161.3,810.6l171.5-173l170.7,173.7L161.3,810.6z"/><path d="M334.9,10c-6.5,0-11.7,5.2-11.7,11.7l3.2,71.9c0,4.7,3.8,8.4,8.5,8.4c4.7,0,8.4-3.8,8.4-8.4l3.3-71.9C346.6,15.2,341.3,10,334.9,10"/><path d="M193.5,56.5c-3.2-5.6-10.4-7.5-16-4.3c-5.6,3.2-7.5,10.4-4.3,16l38.8,60.6c2.3,4,7.5,5.4,11.5,3.1c4-2.3,5.4-7.5,3.1-11.5L193.5,56.5z"/><path d="M138.9,201.8l-60.6-38.7c-5.6-3.2-12.8-1.3-16,4.3c-3.2,5.6-1.3,12.7,4.3,16l63.9,33.1c4,2.3,9.2,0.9,11.5-3.1C144.3,209.3,142.9,204.2,138.9,201.8"/><path d="M603.2,466.2L539.3,433c-4-2.3-9.2-0.9-11.5,3.1c-2.3,4-0.9,9.2,3.1,11.5l60.6,38.7c5.6,3.2,12.8,1.3,16-4.3C610.7,476.6,608.8,469.4,603.2,466.2"/><path d="M112.1,324.8c0-4.7-3.8-8.5-8.4-8.5l-71.9-3.2c-6.5,0-11.7,5.2-11.7,11.7c0,6.5,5.2,11.7,11.7,11.7l71.9-3.2C108.3,333.2,112.1,329.4,112.1,324.8"/><path d="M637.9,313.1l-71.9,3.2c-4.7,0-8.5,3.8-8.5,8.5c0,4.7,3.8,8.4,8.5,8.4l71.9,3.2c6.5,0,11.7-5.2,11.7-11.7C649.6,318.3,644.4,313.1,637.9,313.1"/><path d="M130.4,433.1l-63.9,33.1c-5.6,3.2-7.5,10.4-4.3,16c3.2,5.6,10.4,7.5,16,4.3l60.6-38.7c4-2.3,5.4-7.5,3.1-11.5C139.6,432.1,134.5,430.7,130.4,433.1"/><path d="M539.3,216.5l63.9-33.1c5.6-3.2,7.5-10.4,4.3-16c-3.2-5.6-10.4-7.5-16-4.3l-60.6,38.7c-4,2.3-5.4,7.5-3.1,11.6C530.1,217.4,535.3,218.8,539.3,216.5"/><path d="M492.3,52.2c-5.6-3.2-12.7-1.3-16,4.3l-33.1,63.9c-2.3,4-0.9,9.2,3.1,11.5c4,2.3,9.2,0.9,11.5-3.1l38.8-60.6C499.8,62.6,497.9,55.4,492.3,52.2"/><path d="M409.9,558.6H254.4c-26.1,0-26.5-20.6-26.7-35.6c-0.2-13.9-0.5-29.7-12.7-43.4c-3.6-4.1-8.7-9-14.1-14.2c-8.4-8.1-17.2-16.6-22.6-24c-23.8-32.7-36.4-71.4-36.4-111.9c0-104.9,85.4-190.3,190.3-190.3c104.9,0,190.3,85.4,190.3,190.3c0,40.5-12.6,79.3-36.4,111.9c-5.4,7.5-14.2,15.9-22.6,24c-5.4,5.2-10.5,10.1-14.1,14.2c-12.2,13.8-12.5,29.5-12.7,43.4C436.4,538,436,558.6,409.9,558.6 M332.2,155.7c-95.8,0-173.8,78-173.8,173.8c0,37,11.5,72.4,33.2,102.2c4.6,6.3,12.8,14.2,20.8,21.9c5.6,5.4,11,10.6,15,15.1c16.2,18.3,16.6,39,16.9,54.1c0.3,18.2,1.4,19.3,10.2,19.3h155.5c8.7,0,9.9-1.1,10.2-19.3c0.3-15.1,0.6-35.8,16.8-54.1c4-4.6,9.4-9.7,15-15.1c8-7.6,16.2-15.6,20.8-21.9c21.7-29.8,33.2-65.2,33.2-102.2C505.9,233.6,428,155.7,332.2,155.7"/><path d="M409.9,558.6H254.4c-26.1,0-26.5-20.6-26.7-35.6c-0.2-13.9-0.5-29.7-12.7-43.4c-3.6-4.1-8.7-9-14.1-14.2c-8.4-8.1-17.2-16.6-22.6-24c-23.8-32.7-36.4-71.4-36.4-111.9c0-104.9,85.4-190.3,190.3-190.3c104.9,0,190.3,85.4,190.3,190.3c0,40.5-12.6,79.3-36.4,111.9c-5.4,7.5-14.2,15.9-22.6,24c-5.4,5.2-10.5,10.1-14.1,14.2c-12.2,13.8-12.5,29.5-12.7,43.4C436.4,538,436,558.6,409.9,558.6z M332.2,155.7c-95.8,0-173.8,78-173.8,173.8c0,37,11.5,72.4,33.2,102.2c4.6,6.3,12.8,14.2,20.8,21.9c5.6,5.4,11,10.6,15,15.1c16.2,18.3,16.6,39,16.9,54.1c0.3,18.2,1.4,19.3,10.2,19.3h155.5c8.7,0,9.9-1.1,10.2-19.3c0.3-15.1,0.6-35.8,16.8-54.1c4-4.6,9.4-9.7,15-15.1c8-7.6,16.2-15.6,20.8-21.9c21.7-29.8,33.2-65.2,33.2-102.2C505.9,233.6,428,155.7,332.2,155.7z"/><path d="M417.9,701.5c10.1,0,13.9-11.4,13.9-22.8v-13.5c4.8-1.6,8.3-6,8.3-11.4c0-5.3-3.5-9.8-8.3-11.4v-25.6c4.8-1.5,8.3-6,8.3-11.4c0-5.3-3.5-9.8-8.3-11.4v-25.6c4.8-1.6,8.3-6,8.3-11.4c0-6.6-5.4-12-12-12H419H332h-86.9H236c-6.6,0-12,5.4-12,12c0,5.3,3.5,9.8,8.3,11.4v25.6c-4.8,1.5-8.3,6-8.3,11.4c0,5.4,3.5,9.8,8.3,11.4v25.6c-4.8,1.6-8.3,6-8.3,11.4c0,5.4,3.5,9.8,8.3,11.4v13.5c0,11.4,3.7,22.8,13.9,22.8h0l85.8-94.7"/><path d="M280.2,436.2h10.9c5.5,0,10,3.4,10,7.6v100.3h8.1V443.8c0-8.7-8.1-15.7-18-15.7h-10.9c-5.5,0-10-3.4-10-7.6v-69.4c0-13.9,7.4-22.6,19.2-22.6c3.2,0,6.4,1.3,9.1,3.5c-4.4,6.3-7,14.2-7,21.8c0,12.9,4.7,20.9,12.4,20.9c7.6,0,12.4-8,12.4-20.9c0-7.6-2.5-15.5-7-21.8c2.8-2.2,5.9-3.5,9.1-3.5c3.2,0,6.4,1.3,9.1,3.5c-4.4,6.3-6.9,14.2-6.9,21.8c0,12.9,4.8,20.9,12.4,20.9c7.6,0,12.4-8,12.4-20.9c0-7.6-2.5-15.5-6.9-21.8c2.7-2.2,5.9-3.5,9.1-3.5c3.2,0,6.4,1.3,9.1,3.5c-4.4,6.3-6.9,14.2-6.9,21.8c0,12.9,4.7,20.9,12.4,20.9c7.6,0,12.4-8,12.4-20.9c0-7.6-2.5-15.5-6.9-21.8c2.8-2.2,5.9-3.5,9.1-3.5c11.5,0,18.9,9.2,18.9,23.3v69.3c0,4.2-4.5,7.6-9.9,7.6h-10.9c-9.9,0-18,7-18,15.7v99.6h8.1v-99.6c0-4.2,4.5-7.6,9.9-7.6h10.9c9.9,0,18-7,18-15.7v-69.3c0-18.8-10.8-31.4-26.9-31.4c-5.5,0-10.5,2.1-14.5,5.6c-4.1-3.4-9-5.6-14.6-5.6c-5.5,0-10.5,2.1-14.6,5.6c-4.1-3.4-9-5.6-14.6-5.6c-5.5,0-10.5,2.1-14.5,5.6c-4.1-3.4-9-5.6-14.6-5.6c-13.6,0-27.3,9.5-27.3,30.7v69.4C262.2,429.1,270.2,436.2,280.2,436.2 M362.3,338.3c2.6,4.4,4.3,9.8,4.3,15.5c0,7-2,12.9-4.3,12.9c-2.3,0-4.3-5.9-4.3-12.9C358,348.1,359.6,342.7,362.3,338.3 M333.1,338.3c2.6,4.4,4.3,9.8,4.3,15.5c0,7-2,12.9-4.3,12.9c-2.3,0-4.3-5.9-4.3-12.9C328.8,348.1,330.5,342.7,333.1,338.3 M304,338.3c2.7,4.4,4.3,9.8,4.3,15.5c0,7-2,12.9-4.3,12.9c-2.3,0-4.3-5.9-4.3-12.9C299.7,348.1,301.4,342.7,304,338.3"/><path d="M302.2,533.4h61.4v7.9h-61.4V533.4L302.2,533.4z"/><path d="M690.7,743c-13.5,76.5-80.1,134.6-160.4,134.6c-54.3,0-102.3-26.5-131.9-67.3l-125.7,0.2C311.9,914.8,412.3,990,530.3,990c131.1,0,240.6-91.7,268.4-214.3L690.7,743z"/><path d="M961.3,530.7c-131.1,0-240.6,91.7-268.4,214.3l108,32.6c13.5-76.5,80.1-134.6,160.5-134.6c6.3,0,12.5,0.5,18.6,1.2V531.4C973.7,531,967.5,530.7,961.3,530.7"/></g>
</svg>