<svg width="406" height="306" id="Layer_1_1_" enable-background="new 0 0 64 64" viewBox="0 0 64 64" xmlns="http://www.w3.org/2000/svg"><path d="m20 37.649v-6.649c0-6.065-4.935-11-11-11h-7v2h7c4.962 0 9 4.037 9 9v7c0 .228.077.447.219.625l3.104 3.88-1.64.547c-.408.136-.683.517-.683.948v3.181l-4.196.839c-.387.077-.692.375-.779.759-.087.385.06.785.375 1.021l3.563 2.672c-.227 1.43-1.469 2.528-2.963 2.528h-9c-.552 0-1 .447-1 1v6h2v-5h8c2.757 0 5-2.243 5-5 0-.314-.148-.611-.4-.8l-2.211-1.658 2.807-.562c.468-.093.804-.503.804-.98v-3.279l2.316-.772c.31-.103.55-.352.643-.665s.026-.652-.178-.908z"/><path d="m14.853 33h-.003c-.416 0-.821.237-.953.631-.264.795-1.015 1.369-1.897 1.369s-1.633-.574-1.898-1.369c-.131-.394-.537-.631-.953-.631h-.002c-.655 0-1.15.638-.944 1.26.529 1.59 2.031 2.74 3.797 2.74s3.268-1.15 3.797-2.74c.207-.622-.289-1.26-.944-1.26z"/><path d="m31.68 44.643c.854 1.224 1.311 2.704 1.32 4.282.008 1.553-.44 3.041-1.297 4.304l1.654 1.123c1.085-1.599 1.653-3.479 1.643-5.438-.011-1.986-.592-3.859-1.68-5.416z"/><path d="m35.082 42.396c1.246 1.912 1.909 4.166 1.918 6.519.009 2.36-.647 4.622-1.898 6.54l1.676 1.092c1.464-2.246 2.232-4.888 2.222-7.64-.011-2.738-.786-5.367-2.242-7.603z"/><path d="m28.382 46.693c.404.675.618 1.449.618 2.237 0 .791-.208 1.563-.602 2.233l1.724 1.014c.574-.978.878-2.1.878-3.247 0-1.15-.312-2.279-.902-3.264z"/><path d="m48 47c0 2.757 2.243 5 5 5s5-2.243 5-5v-6c0-2.757-2.243-5-5-5s-5 2.243-5 5zm2-6c0-1.654 1.346-3 3-3s3 1.346 3 3v6c0 1.654-1.346 3-3 3s-3-1.346-3-3z"/><path d="m53 54c-3.86 0-7-3.141-7-7h-2c0 4.625 3.507 8.442 8 8.941v4.059h-3v2h8v-2h-3v-4.059c4.493-.499 8-4.316 8-8.941h-2c0 3.859-3.14 7-7 7z"/><path d="m48 28v-25c0-.553-.448-1-1-1h-20c-.552 0-1 .447-1 1v25c0 .553.448 1 1 1h20c.552 0 1-.447 1-1zm-2-1h-18v-23h18z"/><path d="m31 7h2v2h-2z"/><path d="m35 7h8v2h-8z"/><path d="m31 12h2v2h-2z"/><path d="m35 12h8v2h-8z"/><path d="m31 17h2v2h-2z"/><path d="m35 17h8v2h-8z"/><path d="m31 22h2v2h-2z"/><path d="m35 22h8v2h-8z"/></svg>