<svg width="406" height="306" viewBox="0 0 128 128" xmlns="http://www.w3.org/2000/svg"><g><path d="m60.5 68.25v-66.503a1.749 1.749 0 0 0 -1.747-1.747h-57a1.749 1.749 0 0 0 -1.753 1.747v66.5a1.749 1.749 0 0 0 1.75 1.753h57a1.749 1.749 0 0 0 1.75-1.75zm-3.5-1.75h-53.5v-63h53.5z"/><path d="m126.25 57.994h-57a1.749 1.749 0 0 0 -1.75 1.75v66.5a1.749 1.749 0 0 0 1.75 1.75h57a1.749 1.749 0 0 0 1.75-1.75v-66.5a1.749 1.749 0 0 0 -1.75-1.75zm-1.75 66.5h-53.5v-63h53.5z"/><path d="m9.75 13.375h41a1.75 1.75 0 0 0 0-3.5h-41a1.75 1.75 0 0 0 0 3.5z"/><path d="m9.75 22.725h41a1.75 1.75 0 0 0 0-3.5h-41a1.75 1.75 0 0 0 0 3.5z"/><path d="m9.75 32.074h41a1.75 1.75 0 0 0 0-3.5h-41a1.75 1.75 0 0 0 0 3.5z"/><path d="m9.75 41.423h41a1.75 1.75 0 0 0 0-3.5h-41a1.75 1.75 0 0 0 0 3.5z"/><path d="m9.75 50.772h41a1.75 1.75 0 0 0 0-3.5h-41a1.75 1.75 0 0 0 0 3.5z"/><path d="m9.75 60.122h27.625a1.75 1.75 0 0 0 0-3.5h-27.625a1.75 1.75 0 0 0 0 3.5z"/><path d="m78.466 101.616a1.749 1.749 0 0 0 1.75-1.75v-13.741a1.75 1.75 0 0 0 -3.5 0v13.741a1.749 1.749 0 0 0 1.75 1.75z"/><path d="m88.107 117.647a1.749 1.749 0 0 0 1.75-1.75v-45.8a1.75 1.75 0 0 0 -3.5 0v45.8a1.75 1.75 0 0 0 1.75 1.75z"/><path d="m97.748 109.616a1.749 1.749 0 0 0 1.75-1.75v-29.741a1.75 1.75 0 0 0 -3.5 0v29.741a1.749 1.749 0 0 0 1.75 1.75z"/><path d="m107.39 117.647a1.75 1.75 0 0 0 1.75-1.75v-45.8a1.75 1.75 0 0 0 -3.5 0v45.8a1.749 1.749 0 0 0 1.75 1.75z"/><path d="m117.031 101.616a1.749 1.749 0 0 0 1.75-1.75v-13.741a1.75 1.75 0 0 0 -3.5 0v13.741a1.749 1.749 0 0 0 1.75 1.75z"/><path d="m68.761 22.5h20.987a2.253 2.253 0 0 1 2.252 2.25v7.65h-7.19a1.751 1.751 0 0 0 -1.75 1.75v5.579a1.746 1.746 0 0 0 .68 1.384l12.938 10.007a1.747 1.747 0 0 0 2.14 0l12.938-10.008a1.745 1.745 0 0 0 .679-1.384v-5.579a1.75 1.75 0 0 0 -1.75-1.75h-7.185v-7.649a13.765 13.765 0 0 0 -13.752-13.75h-20.987a1.749 1.749 0 0 0 -1.75 1.75v8a1.749 1.749 0 0 0 1.75 1.75zm1.75-8h19.237a10.261 10.261 0 0 1 10.252 10.25v9.4a1.749 1.749 0 0 0 1.75 1.75h7.187v2.97l-11.189 8.653-11.188-8.653v-2.97h7.188a1.749 1.749 0 0 0 1.75-1.75v-9.4a5.756 5.756 0 0 0 -5.75-5.75h-19.237z"/><path d="m59.239 105.494h-20.987a2.253 2.253 0 0 1 -2.25-2.25v-7.644h7.187a1.75 1.75 0 0 0 1.75-1.75v-5.584a1.75 1.75 0 0 0 -.679-1.384l-12.938-10.008a1.747 1.747 0 0 0 -2.14 0l-12.938 10.008a1.748 1.748 0 0 0 -.68 1.384v5.579a1.751 1.751 0 0 0 1.75 1.75h7.186v7.649a13.765 13.765 0 0 0 13.75 13.75h20.989a1.749 1.749 0 0 0 1.75-1.75v-8a1.749 1.749 0 0 0 -1.75-1.75zm-1.75 8h-19.237a10.261 10.261 0 0 1 -10.252-10.25v-9.4a1.749 1.749 0 0 0 -1.75-1.75h-7.186v-2.97l11.188-8.653 11.187 8.653v2.976h-7.187a1.749 1.749 0 0 0 -1.75 1.75v9.4a5.756 5.756 0 0 0 5.75 5.75h19.237z"/></g></svg>